TITLE ""
FILE "Disc4Track55.mp3" MP3
  TRACK 01 AUDIO
    TITLE "Disc4Track55_01"
    INDEX 01 00:00:00
  TRACK 02 AUDIO
    TITLE "Disc4Track55_02"
    INDEX 01 00:01:04
  TRACK 03 AUDIO
    TITLE "Disc4Track55_03"
    INDEX 01 00:02:70
  TRACK 04 AUDIO
    TITLE "Disc4Track55_04"
    INDEX 01 00:04:10
  TRACK 05 AUDIO
    TITLE "Disc4Track55_05"
    INDEX 01 00:05:72
  TRACK 06 AUDIO
    TITLE "Disc4Track55_06"
    INDEX 01 00:06:31
  TRACK 07 AUDIO
    TITLE "Disc4Track55_07"
    INDEX 01 00:07:42
  TRACK 08 AUDIO
    TITLE "Disc4Track55_08"
    INDEX 01 00:08:51
  TRACK 09 AUDIO
    TITLE "Disc4Track55_09"
    INDEX 01 00:09:62
  TRACK 10 AUDIO
    TITLE "Disc4Track55_10"
    INDEX 01 00:12:06
  TRACK 11 AUDIO
    TITLE "Disc4Track55_11"
    INDEX 01 00:12:37
  TRACK 12 AUDIO
    TITLE "Disc4Track55_12"
    INDEX 01 00:13:58
  TRACK 13 AUDIO
    TITLE "Disc4Track55_13"
    INDEX 01 00:15:12
  TRACK 14 AUDIO
    TITLE "Disc4Track55_14"
    INDEX 01 00:16:33
  TRACK 15 AUDIO
    TITLE "Disc4Track55_15"
    INDEX 01 00:17:01
  TRACK 16 AUDIO
    TITLE "Disc4Track55_16"
    INDEX 01 00:18:28
  TRACK 17 AUDIO
    TITLE "Disc4Track55_17"
    INDEX 01 00:20:42
  TRACK 18 AUDIO
    TITLE "Disc4Track55_18"
    INDEX 01 00:21:65
  TRACK 19 AUDIO
    TITLE "Disc4Track55_19"
    INDEX 01 00:26:51
  TRACK 20 AUDIO
    TITLE "Disc4Track55_20"
    INDEX 01 00:27:07
  TRACK 21 AUDIO
    TITLE "Disc4Track55_21"
    INDEX 01 00:28:42
  TRACK 22 AUDIO
    TITLE "Disc4Track55_22"
    INDEX 01 00:29:41
  TRACK 23 AUDIO
    TITLE "Disc4Track55_23"
    INDEX 01 00:31:03
  TRACK 24 AUDIO
    TITLE "Disc4Track55_24"
    INDEX 01 00:31:40
  TRACK 25 AUDIO
    TITLE "Disc4Track55_25"
    INDEX 01 00:32:57
  TRACK 26 AUDIO
    TITLE "Disc4Track55_26"
    INDEX 01 00:33:55
  TRACK 27 AUDIO
    TITLE "Disc4Track55_27"
    INDEX 01 00:34:70
  TRACK 28 AUDIO
    TITLE "Disc4Track55_28"
    INDEX 01 00:40:18
  TRACK 29 AUDIO
    TITLE "Disc4Track55_29"
    INDEX 01 00:40:51
  TRACK 30 AUDIO
    TITLE "Disc4Track55_30"
    INDEX 01 00:41:62
  TRACK 31 AUDIO
    TITLE "Disc4Track55_31"
    INDEX 01 00:42:66
  TRACK 32 AUDIO
    TITLE "Disc4Track55_32"
    INDEX 01 00:44:06
  TRACK 33 AUDIO
    TITLE "Disc4Track55_33"
    INDEX 01 00:44:49
  TRACK 34 AUDIO
    TITLE "Disc4Track55_34"
    INDEX 01 00:45:54
  TRACK 35 AUDIO
    TITLE "Disc4Track55_35"
    INDEX 01 00:47:04
  TRACK 36 AUDIO
    TITLE "Disc4Track55_36"
    INDEX 01 00:48:09
  TRACK 37 AUDIO
    TITLE "Disc4Track55_37"
    INDEX 01 00:53:05
  TRACK 38 AUDIO
    TITLE "Disc4Track55_38"
    INDEX 01 00:53:36
  TRACK 39 AUDIO
    TITLE "Disc4Track55_39"
    INDEX 01 00:54:65
  TRACK 40 AUDIO
    TITLE "Disc4Track55_40"
    INDEX 01 00:55:70
  TRACK 41 AUDIO
    TITLE "Disc4Track55_41"
    INDEX 01 00:57:22
  TRACK 42 AUDIO
    TITLE "Disc4Track55_42"
    INDEX 01 01:02:13
  TRACK 43 AUDIO
    TITLE "Disc4Track55_43"
    INDEX 01 01:02:45
  TRACK 44 AUDIO
    TITLE "Disc4Track55_44"
    INDEX 01 01:03:58
  TRACK 45 AUDIO
    TITLE "Disc4Track55_45"
    INDEX 01 01:06:23
  TRACK 46 AUDIO
    TITLE "Disc4Track55_46"
    INDEX 01 01:07:32
  TRACK 47 AUDIO
    TITLE "Disc4Track55_47"
    INDEX 01 01:09:49
